<?xml version='1.0' encoding='utf-8'?>
<svg xmlns="http://www.w3.org/2000/svg" id="Layer_1" data-name="Layer 1" viewBox="0 0 435 621"><defs><style>.cls-1{opacity:0.6;}.cls-2{fill:#ff94c4;}.cls-3{fill:#530055;}.cls-4{fill:#ffeaff;}.cls-5{fill:#6a002f;}.cls-6{fill:#ff2a54;}.cls-7{fill:#fff;}</style></defs><g class="cls-1"><path class="cls-2" d="M121.36,147.43c-2.09,3.89-7.69,3.81-11.94,2.6s-9-2.94-12.83-.69c-3.61,2.13-5.18,7.36-9.31,8.13-5.35,1-9.25-6.47-14.68-6.08-5.13.36-8,7.51-13.12,7.4-3.74-.08-6.79-4.14-10.45-3.44-5.34,1-4.6,9.94-9.33,12.61-2.46,1.39-5.82.66-8,2.41-3,2.37-1.64,7.32.92,10.15s6.11,5,7.51,8.51c1.16,2.95.58,6.27,1.06,9.4s2.87,6.54,6,6c2.81-.45,4.27-3.71,6.87-4.85,6.41-2.83,12.58,8.55,19.1,6,3.9-1.54,4.55-7,8-9.47,6.54-4.68,17.82,4.62,22.91-1.61,1.68-2.06,1.68-5,2.41-7.52a13.38,13.38,0,0,1,15.64-8.93c-5.26-10.55,6.56-24.63-.08-34.37"/><path class="cls-3" d="M120.06,146.67c-2.15,3.76-7.65,2.67-11,1.69-4.82-1.4-10.24-2.91-14.52.64a37.67,37.67,0,0,0-4,4.59c-1.19,1.36-2.63,2.65-4.57,2.46-1.73-.17-3.28-1.33-4.65-2.32a27.09,27.09,0,0,0-4.83-3.08c-4-1.73-7.38-.05-10.4,2.63a22.21,22.21,0,0,1-4.33,3.47c-1.79.91-3.5.44-5.19-.45-1.89-1-3.71-2.23-5.87-2.48a6.18,6.18,0,0,0-5,1.65c-2.5,2.37-3,6.07-4.65,9a5.55,5.55,0,0,1-4.15,2.89c-2.29.44-4.69.52-6.5,2.2-3.35,3.12-1.75,8.46.75,11.55a64.27,64.27,0,0,0,5,4.89,10,10,0,0,1,3.19,6.41c.42,4.58-.2,10.37,4.62,13a5.7,5.7,0,0,0,6-.44c1.66-1.15,2.86-3.12,4.73-3.93,3-1.29,6.41,1.69,8.71,3.26,2.79,1.9,6.13,4,9.65,3,4.15-1.2,5.2-5.51,7.59-8.55s6.09-2.59,9.44-1.9,7.19,2,10.78,1.28a7.35,7.35,0,0,0,4.23-2.47c1.6-1.91,2-4.33,2.44-6.69a11.86,11.86,0,0,1,8-9.09,11.07,11.07,0,0,1,6.14-.29,1.52,1.52,0,0,0,1.7-2.2c-2.62-5.42-.44-11.84.86-17.31,1.34-5.64,2.47-11.91-.94-17.06-1.07-1.6-3.67-.1-2.59,1.52,3.33,5,1.47,11.31.16,16.7-1.41,5.81-2.81,12-.08,17.67l1.69-2.21a14.68,14.68,0,0,0-12.11,2.51,14.88,14.88,0,0,0-4.19,4.64c-1.16,2.07-1.48,4.31-2,6.59-.41,1.81-1.11,3.65-2.92,4.45a8.27,8.27,0,0,1-4.33.32c-3.65-.49-7.18-1.85-10.9-1.88-4.06,0-6.94,2-9,5.41-1.64,2.72-3.3,6.68-7.18,5.65-3.33-.88-5.93-3.62-8.91-5.22-3.43-1.84-6.85-1.89-9.87.77-1.29,1.14-2.74,3.3-4.69,3.16s-3.24-2.6-3.65-4.32c-.61-2.6-.18-5.37-.63-8a12.12,12.12,0,0,0-3.23-6.2c-2.79-3.06-7.44-5.65-7.41-10.35,0-2.3,1.74-3.19,3.79-3.55s4.35-.56,6.15-2c2.7-2.15,3.41-5.7,4.83-8.67.59-1.23,1.33-2.56,2.7-3,1.91-.63,3.85.78,5.43,1.65a10.44,10.44,0,0,0,5.69,1.7A9.44,9.44,0,0,0,65.16,158c2.47-1.94,5.16-5.75,8.74-5s6.24,4.29,9.72,5.6c4,1.53,7.31-.79,9.77-3.84,1.22-1.51,2.4-3.23,4.14-4.19,2.26-1.25,5-.79,7.4-.2,4.32,1.06,8.74,2.85,13.22,1.41a7.8,7.8,0,0,0,4.5-3.56,1.5,1.5,0,0,0-2.59-1.51Z"/></g><g class="cls-1"><path class="cls-2" d="M129.28,107.19c-4.75,2.32-10.16-.31-13.46-3.27s-6.75-6.6-12-6.45c-5,.14-10.19,3.83-14.75,2.6C83.12,98.48,84.54,90.39,79,88.23c-5.26-2-13,2.68-18,.23-3.58-1.77-3.73-6.59-7.79-7.67-5.91-1.58-11.42,6.27-17.89,6.36-3.37,0-6.14-2.1-9.52-1.64-4.57.63-6.69,5.42-6.17,9s2.48,7,1.37,10.61c-.93,3-3.8,5.54-5.53,8.4s-1.76,6.83,1.63,7.84c3.05.91,6.75-1.17,10.09-.94,8.22.55,6.3,13,14.44,13.76,4.88.49,9.36-3.84,14.39-4.34,9.64-.95,14.15,12,23.46,9.12,3.07-1,5.1-3.41,7.6-5.23,6.24-4.55,16.38-4.73,21.48-.37,2.23-11.3,23.58-17.76,23.91-29"/><path class="cls-3" d="M128.52,105.89a9.26,9.26,0,0,1-8-.55,29.28,29.28,0,0,1-6-4.58,21.08,21.08,0,0,0-6-3.93,13,13,0,0,0-7.52-.52c-2.68.55-5.2,1.68-7.88,2.26-2,.44-4.3.41-5.84-1.16C84.9,94.9,84.69,91,82.09,88.47c-3.49-3.32-8.55-2.2-12.79-1.38-2.06.39-4.37.92-6.47.43s-3-2-4.07-3.66-2.35-3.43-4.34-4.24a8.47,8.47,0,0,0-6.11.09c-4,1.48-7.29,4.81-11.52,5.77-2.55.57-4.86-.58-7.29-1.17a9.07,9.07,0,0,0-7.15.9c-3.86,2.48-4.83,7.16-3.81,11.37.68,2.81,2,5.78.84,8.64-1.05,2.57-3.23,4.56-4.75,6.83-2.27,3.39-2.85,8.93,1.79,10.62,2.54.93,5.31,0,7.83-.5,1.89-.39,3.93-.55,5.56.67,2.38,1.78,3.24,5.17,4.65,7.66,1.84,3.24,4.76,5.46,8.64,5.16,5-.39,9-4.47,14.09-4.4,3.68.06,6.69,2.57,9.43,4.74s5.72,4.49,9.4,4.83a10.68,10.68,0,0,0,6-1.38c2.31-1.27,4.07-3.28,6.23-4.76a18.67,18.67,0,0,1,13.56-2.75,12.37,12.37,0,0,1,5.68,2.45,1.52,1.52,0,0,0,2.5-.67c1-4.89,5.44-8.39,9.14-11.37,4.16-3.34,8.74-6.42,12-10.71a13.07,13.07,0,0,0,2.83-7.31c.08-1.93-2.92-1.93-3,0-.2,4.66-4.39,8.19-7.7,10.94-4.13,3.42-8.74,6.44-12.29,10.52a16.22,16.22,0,0,0-3.87,7.14l2.51-.67c-3.49-2.89-8.17-3.86-12.62-3.53a22.18,22.18,0,0,0-13.08,5.61c-1.84,1.56-3.76,3.15-6.23,3.47a7.71,7.71,0,0,1-4.49-.87c-3.17-1.6-5.66-4.24-8.62-6.16a13.19,13.19,0,0,0-11.19-2c-2.49.73-4.73,2.06-7.14,3-1.89.73-4.07,1.29-6,.47-2.79-1.17-3.88-4.7-5.13-7.18-1.47-2.92-3.55-5.59-7-6.12-2.63-.4-5.11.49-7.67.92-1.82.31-4.28.27-4.6-2s1.18-4.21,2.45-5.84c1.58-2,3.37-4,4.14-6.57.87-2.83.07-5.7-.69-8.45-.6-2.18-1-4.23-.16-6.4A5.76,5.76,0,0,1,25.88,87c2.55-.43,5,1,7.48,1.46,4.73.79,8.59-1.87,12.46-4.17,1.64-1,3.46-2.08,5.42-2.21a4.71,4.71,0,0,1,4.37,2.43c1.14,1.67,2.07,3.46,3.74,4.68a9.2,9.2,0,0,0,5.9,1.47,56.57,56.57,0,0,0,7-1.09c2-.36,4.4-.75,6.37.09,3.23,1.39,3.73,5.71,5.48,8.37,2.69,4.11,7.29,4.25,11.64,3,2.53-.73,5.06-1.86,7.71-2a10.49,10.49,0,0,1,6.68,2c2,1.33,3.54,3.08,5.37,4.56a18.18,18.18,0,0,0,6.72,3.57,11.43,11.43,0,0,0,7.85-.67c1.76-.81.23-3.39-1.51-2.59Z"/></g><g class="cls-1"><path class="cls-2" d="M174.11,68.09c-4.27,1.15-8.05-3-10.07-6.92s-4-8.6-8.27-9.84c-4-1.17-8.92,1.26-12.31-1.21-4.4-3.21-1.61-11.18-5.61-14.88-3.77-3.49-10.94-.67-14.37-4.5-2.5-2.78-1.63-7.78-4.65-10-4.39-3.2-10.39,3.45-15.58,1.82-2.69-.84-4.46-3.79-7.25-4.2-3.78-.57-6.45,3.81-6.76,7.61s.55,7.86-1.08,11.3C86.81,40.17,84,42,82,44.5s-2.8,6.58-.3,8.52c2.25,1.74,5.63.58,8.24,1.69,6.45,2.74,2.38,15,8.71,18,3.79,1.79,8.25-1.49,12.36-.68,7.89,1.57,8.83,16.16,16.85,15.61,2.66-.18,4.78-2.17,7.14-3.38a13.36,13.36,0,0,1,17.21,5.29c4.1-11,22.45-12.07,25-23.58"/><path class="cls-3" d="M173.71,66.64c-4.85,1.14-7.75-5-9.51-8.45-2-3.89-4.66-7.91-9.35-8.57-3.75-.52-10,2-11.94-2.59-1.53-3.57-.63-7.76-2.68-11.19-2.25-3.78-6.6-3.94-10.51-4.29-1.8-.16-3.93-.41-5.18-1.87s-1.47-3.66-2-5.47a8.05,8.05,0,0,0-3.21-4.91,7,7,0,0,0-5.31-.67c-3.35.72-7.48,4-11,2.28-2-.95-3.36-2.76-5.41-3.59A6,6,0,0,0,91.8,18c-4,2.87-4.17,7.82-4.11,12.26,0,2.64,0,5.3-1.58,7.56-1.36,2-3.36,3.45-4.9,5.3-2.55,3.08-4,8.59-.09,11.27,3.21,2.19,8.28-.22,10.35,3.73C93,61,92.84,64.63,93.59,67.74c.83,3.42,2.86,6.47,6.6,7,4,.52,8.49-2.71,12.27-.51,2.62,1.53,4.11,4.6,5.6,7.12s3.18,5.52,5.9,7a7.46,7.46,0,0,0,4.73.79c2.55-.4,4.54-2.11,6.74-3.31a11.79,11.79,0,0,1,11.45.43A11.15,11.15,0,0,1,151,90.33a1.52,1.52,0,0,0,2.74-.36c1.63-4.26,5.75-6.88,9.52-9.08,4-2.36,8.43-4.45,11.73-7.84a14.17,14.17,0,0,0,3.76-6.66c.44-1.88-2.46-2.68-2.9-.79-1,4.42-4.7,7.16-8.4,9.41-4.08,2.47-8.49,4.52-12.09,7.73a16.42,16.42,0,0,0-4.51,6.43l2.74-.36a14.71,14.71,0,0,0-9.58-7,15.38,15.38,0,0,0-6.12-.11,17.32,17.32,0,0,0-6,2.69c-1.63,1-3.47,2.14-5.46,1.62a6.21,6.21,0,0,1-3-2.1c-2-2.35-3.3-5.3-5-7.86s-4.07-5-7.3-5.54c-2.29-.37-4.53.24-6.74.76-1.91.44-4.13.91-5.81-.42-2.32-1.84-2.42-5.8-2.84-8.47-.49-3.08-1.2-6.51-3.92-8.41C90,52.79,88,52.71,85.9,52.61s-4.15-.55-4.21-3C81.57,45,86.87,42.43,89,38.89a14.28,14.28,0,0,0,1.69-7.32c0-2.42-.31-4.95.4-7.31.51-1.71,1.62-3.77,3.46-4.31s3.6,1.11,5,2.19a8.8,8.8,0,0,0,5.76,2.21,17,17,0,0,0,5.53-1.46c1.67-.65,3.56-1.61,5.4-1.5s2.73,1.45,3.24,3c.63,1.94.89,4,1.84,5.82a7.47,7.47,0,0,0,4.27,3.59,23.31,23.31,0,0,0,5.94.88c1.8.16,3.86.35,5.26,1.61,2.69,2.43,2,7.22,2.87,10.43a8.15,8.15,0,0,0,2.93,4.59c1.91,1.41,4.31,1.55,6.59,1.41s4.8-.65,6.94.33a10.34,10.34,0,0,1,4.28,4.43c2.34,3.94,3.89,8.4,8,11a7.93,7.93,0,0,0,6.14,1.08c1.88-.45,1.09-3.34-.79-2.9Z"/></g><g class="cls-1"><path class="cls-2" d="M284.32,149.88c2.08,3.89,7.69,3.81,11.94,2.6s9-2.94,12.83-.69c3.61,2.13,5.18,7.36,9.3,8.13,5.35,1,9.25-6.47,14.69-6.08,5.13.36,8,7.51,13.12,7.4,3.73-.08,6.78-4.14,10.45-3.44,5.33,1,4.6,9.94,9.33,12.61,2.46,1.39,5.81.66,8,2.41,3,2.37,1.63,7.32-.93,10.15s-6.1,5-7.5,8.51c-1.16,3-.59,6.27-1.06,9.4s-2.88,6.54-6,6.05c-2.81-.45-4.28-3.71-6.88-4.85-6.41-2.83-12.58,8.55-19.09,6-3.9-1.54-4.56-7-8-9.47-6.54-4.68-17.82,4.62-22.91-1.61-1.69-2.06-1.69-5-2.42-7.52a13.37,13.37,0,0,0-15.64-8.93c5.26-10.55-6.56-24.63.08-34.37"/><path class="cls-3" d="M283,150.63c2.19,3.84,6.82,4.44,10.83,3.88,4.51-.63,10.07-4,14.48-1.43,3.42,2,4.67,6.38,8.5,7.93s7.26-.88,10.25-3a12.69,12.69,0,0,1,4.7-2.55,5.77,5.77,0,0,1,4.62,1.47c2.89,2.22,5.3,5.55,9.23,5.84,2.16.16,4.14-.85,6-1.87,1.53-.84,3.42-2.13,5.25-1.44a5.26,5.26,0,0,1,2.58,3c.76,1.57,1.29,3.23,2,4.81a10.43,10.43,0,0,0,3,4c1.82,1.39,4,1.5,6.18,1.91s3.7,1.47,3.6,3.84a8.7,8.7,0,0,1-2.57,5.39c-3.34,3.5-7.37,6.1-8.13,11.26-.37,2.55,0,5.25-.61,7.75-.44,1.71-1.7,4.1-3.73,4.15s-3.45-2.24-4.82-3.38a7.5,7.5,0,0,0-4.89-2c-3.57,0-6.58,2.58-9.4,4.45-2.47,1.65-5.81,3.67-8.41,1.12s-3.42-6.87-7-8.84c-3.3-1.81-7.22-1.1-10.72-.34-2.88.63-6.67,2-9.55.73-1.85-.83-2.52-2.77-2.91-4.62a22.28,22.28,0,0,0-2-6.4,15.18,15.18,0,0,0-10-7.25,14.12,14.12,0,0,0-6.27.1l1.69,2.2c2.73-5.64,1.32-11.85-.09-17.66-1.31-5.39-3.16-11.67.17-16.7,1.07-1.62-1.53-3.12-2.59-1.52-3.41,5.15-2.28,11.42-.95,17.06,1.3,5.47,3.48,11.89.87,17.31A1.52,1.52,0,0,0,284,182a11.94,11.94,0,0,1,11.38,3.65,11.66,11.66,0,0,1,2.77,5.73c.49,2.36.84,4.77,2.44,6.69,5.11,6.11,13.94,0,20.27.73,4.09.47,5.23,4.43,7.28,7.37,2.24,3.2,5.7,4.65,9.45,3.2,3.39-1.31,6-4,9.25-5.51a5.08,5.08,0,0,1,4.15-.4c1.88.81,3.08,2.78,4.73,3.93,4.23,2.93,8.57-.52,9.92-4.73.8-2.51.48-5.22.72-7.8a10,10,0,0,1,3.19-6.41c3.23-3.26,7-5.92,7.59-10.85a6.55,6.55,0,0,0-1.83-5.59c-1.81-1.68-4.21-1.76-6.51-2.2a5.53,5.53,0,0,1-4.14-2.89,41.45,41.45,0,0,1-2.05-4.68c-1.35-3.24-3.58-6.38-7.55-5.93-3.75.43-7.2,4.89-11.06,2.93-3.38-1.72-5.4-5.35-9.14-6.54-4-1.27-7.37,1.33-10.42,3.52-1.37,1-2.92,2.16-4.66,2.32-1.93.19-3.38-1.1-4.57-2.46a37.67,37.67,0,0,0-4.05-4.59,9.92,9.92,0,0,0-6.7-2.25c-4.86.11-9.28,2.86-14.18,2.48a5.58,5.58,0,0,1-4.68-2.56,1.5,1.5,0,0,0-2.59,1.51Z"/></g><g class="cls-1"><path class="cls-2" d="M276.4,109.64c4.75,2.32,10.16-.31,13.45-3.27s6.75-6.6,12-6.45c5,.14,10.19,3.83,14.75,2.6,5.92-1.59,4.5-9.68,10.07-11.84,5.25-2,13,2.68,18,.23,3.58-1.77,3.72-6.59,7.78-7.67,5.92-1.58,11.42,6.27,17.9,6.36,3.37,0,6.13-2.1,9.52-1.64,4.56.63,6.69,5.42,6.17,9s-2.49,7-1.37,10.61c.92,3,3.8,5.54,5.52,8.4s1.76,6.83-1.63,7.84c-3,.91-6.75-1.17-10.08-.94-8.22.55-6.3,12.95-14.45,13.76-4.88.49-9.35-3.84-14.38-4.34-9.65-.95-14.15,12-23.46,9.12-3.08-1-5.11-3.41-7.6-5.23-6.24-4.55-16.38-4.73-21.48-.37-2.24-11.3-23.59-17.76-23.91-29"/><path class="cls-3" d="M275.64,110.93c5.12,2.36,10.59.39,14.72-3,3.69-3,7-7,12.29-6.44,4.94.52,9.86,4.15,14.94,2.32,3.73-1.34,4.79-4.93,6.38-8.17a6.51,6.51,0,0,1,3.27-3.55c1.95-.76,4.24-.39,6.23,0,4.14.73,9.24,2.33,13-.48,2.92-2.2,3.82-7.51,8.28-7a14.19,14.19,0,0,1,5.42,2.36A44.23,44.23,0,0,0,366,90.13a11.47,11.47,0,0,0,6.72.72c2.38-.47,4.77-1.85,7.26-1.35a5.73,5.73,0,0,1,4.15,3.73c.82,2.13.38,4.13-.21,6.26-.75,2.76-1.55,5.62-.69,8.45.79,2.59,2.66,4.63,4.28,6.74,1.23,1.61,2.66,3.59,2.3,5.74-.39,2.4-3.14,2.22-5,1.86-2.5-.48-5-1.26-7.53-.8a7.89,7.89,0,0,0-4.23,2.32c-2.21,2.31-3.09,5.46-4.72,8.14a6.55,6.55,0,0,1-2.94,2.81c-1.95.8-4.11.24-6-.48-4.46-1.73-8.52-4.41-13.5-3.23-3.64.85-6.54,3.38-9.4,5.63-2.5,2-5.44,4.13-8.82,3.55-2.49-.43-4.38-2.1-6.24-3.68a22.33,22.33,0,0,0-6-3.79,21.77,21.77,0,0,0-13.73-.95,14.88,14.88,0,0,0-5.69,2.91l2.5.67c-1-4.95-5-8.68-8.76-11.77-4.1-3.39-8.7-6.38-12.19-10.45a10.74,10.74,0,0,1-2.9-6.38c-.08-1.92-3.08-1.93-3,0,.21,5.07,3.83,9,7.47,12.13,4.14,3.58,8.8,6.58,12.57,10.56a14.13,14.13,0,0,1,3.92,6.7,1.52,1.52,0,0,0,2.51.67c3.46-2.87,8.7-3.21,12.93-2.31a17.75,17.75,0,0,1,6.45,2.71c2.1,1.46,3.82,3.42,6.08,4.66a11,11,0,0,0,11.25-.41c3.1-1.84,5.61-4.52,8.75-6.3a10.11,10.11,0,0,1,5-1.48c2.55,0,4.9,1.18,7.16,2.22,3.85,1.78,8.5,3.49,12.33.7,2.75-2,3.83-5.31,5.36-8.19a8.91,8.91,0,0,1,2.58-3.28c1.66-1.14,3.7-.89,5.57-.5,2.53.53,5.25,1.37,7.78.4a5.36,5.36,0,0,0,3.42-4.79c.38-5.37-4.88-8.23-6.6-12.77-1.08-2.88.3-5.88,1-8.69A10.88,10.88,0,0,0,387,92.3c-1.77-4.66-6.22-6.69-11-5.5-2.43.62-4.71,1.7-7.26,1.09A21.46,21.46,0,0,1,362.79,85c-3.46-2.11-7.57-4.67-11.71-2.88a9.85,9.85,0,0,0-4.16,4.17c-1.11,1.75-2.2,3.33-4.37,3.72s-4.43-.16-6.53-.56a27.62,27.62,0,0,0-6.89-.8,8.7,8.7,0,0,0-5.55,2.25,14.11,14.11,0,0,0-2.92,4.77,12.63,12.63,0,0,1-2.52,4.35c-1.59,1.47-3.87,1.38-5.85.94-2.61-.59-5.07-1.69-7.69-2.22a13,13,0,0,0-7.7.6c-4.65,1.92-7.47,6.35-11.94,8.52a9.19,9.19,0,0,1-7.81.46c-1.74-.8-3.26,1.78-1.51,2.59Z"/></g><g class="cls-1"><path class="cls-2" d="M231.57,70.54c4.26,1.14,8-3,10.07-6.92s4-8.6,8.27-9.84c4-1.17,8.91,1.26,12.3-1.21,4.4-3.21,1.61-11.18,5.61-14.88,3.78-3.49,10.94-.67,14.38-4.5,2.49-2.78,1.62-7.78,4.64-10,4.4-3.2,10.4,3.45,15.58,1.82,2.69-.84,4.46-3.79,7.26-4.2,3.77-.57,6.45,3.81,6.76,7.61s-.56,7.86,1.07,11.3c1.36,2.87,4.17,4.72,6.13,7.2s2.8,6.58.3,8.52c-2.24,1.74-5.62.58-8.24,1.69-6.44,2.74-2.37,15-8.7,18-3.8,1.79-8.25-1.49-12.37-.68-7.89,1.57-8.82,16.16-16.85,15.61-2.65-.18-4.77-2.17-7.14-3.39A13.38,13.38,0,0,0,253.43,92C249.34,81,231,80,228.43,68.44"/><path class="cls-3" d="M231.17,72c4.8,1.12,8.69-2.51,11-6.31,2.12-3.43,3.46-8.54,7.51-10.25,2.18-.91,4.72-.37,7-.24s4.63-.07,6.51-1.51c3.21-2.44,3.13-6.68,3.73-10.29.27-1.7.68-3.59,2.07-4.74s3.5-1.37,5.31-1.52c3.95-.33,8.26-.7,10.18-4.74,1.28-2.68,1.14-8.6,5.22-8.55,1.76,0,3.52.87,5.13,1.5a15.8,15.8,0,0,0,5.83,1.46,8.81,8.81,0,0,0,5.45-2.21c1.43-1.11,3.16-2.83,5.14-2.14,1.81.63,2.88,2.69,3.37,4.42.67,2.37.32,4.93.35,7.37a13.8,13.8,0,0,0,1.78,7.26,35.7,35.7,0,0,0,4.69,5.22c1.41,1.49,2.66,3.36,2.54,5.5-.14,2.36-2.24,2.75-4.22,2.84s-4.28.21-6,1.53a8.15,8.15,0,0,0-2.65,3.73c-1.19,3.06-1.15,6.42-2,9.57a6.29,6.29,0,0,1-2,3.5c-1.66,1.28-3.88.81-5.75.37-2.27-.53-4.57-1.15-6.92-.73a9.07,9.07,0,0,0-4.15,2c-2.44,2-4,5-5.57,7.72-1.27,2.14-2.86,5.12-5.51,5.72-2,.47-3.87-.71-5.52-1.75a16.61,16.61,0,0,0-6-2.61,15.31,15.31,0,0,0-11.6,2.7,14,14,0,0,0-3.93,4.4l2.74.36c-3.6-9.4-14.48-11.29-21.28-17.52a11.78,11.78,0,0,1-3.73-6c-.44-1.88-3.33-1.09-2.89.79,2.27,9.7,13.58,12.25,20.44,17.77A14.21,14.21,0,0,1,252,92.42a1.52,1.52,0,0,0,2.74.36,11.86,11.86,0,0,1,10-5.85,11,11,0,0,1,5.9,1.48c2.13,1.22,4.09,2.8,6.6,3.14,7.13,1,9.79-7.56,13.13-12.12a9.94,9.94,0,0,1,3-2.85,7.37,7.37,0,0,1,5.35-.37c2.31.51,4.63,1.26,7,.9a7,7,0,0,0,4.61-2.79c2-2.65,2.17-6.18,2.7-9.32s1.26-6.41,4.88-6.83c2.34-.28,4.81.06,6.83-1.41A5.94,5.94,0,0,0,327,51.25a10.6,10.6,0,0,0-2.61-5.8c-1.51-1.78-3.45-3.22-4.78-5.15-3-4.4-.56-10.08-2.25-14.88-1.38-4-5.08-7.48-9.48-5.58-2,.85-3.33,2.6-5.23,3.52s-3.71.29-5.45-.33c-3.46-1.23-7.57-3.55-11.07-1.11a8.38,8.38,0,0,0-3,4.89c-.51,1.81-.72,4-2.05,5.43S277.71,33.84,276,34a26.09,26.09,0,0,0-6.16.88c-4.19,1.42-5.45,5.16-6,9.19a19.27,19.27,0,0,1-1.1,5.49c-.87,1.94-2.64,2.65-4.69,2.67-2.48,0-4.92-.51-7.4-.13A9.7,9.7,0,0,0,245,55.28c-3.1,3.42-4.15,8.16-7.34,11.49-1.48,1.56-3.42,2.85-5.65,2.32-1.88-.44-2.68,2.45-.8,2.9Z"/></g><g class="cls-1"><path class="cls-2" d="M259.52,454.78a29.91,29.91,0,0,0,23.06,22.47c3.74.72,7.61.7,11.34,1.52,4.49,1,8.65,3.19,13.11,4.32s9.68,1,13.08-2.11c2.33-2.13,3.53-5.42,6.21-7.11,4.89-3.07,11.62.86,17-1.25,4.1-1.6,6.14-6.23,7-10.55s1-8.92,3.07-12.8,7.16-6.7,11-4.48c1.89,1.1,3.07,3.2,5,4.2,4.5,2.34,9.38-2.23,12.4-6.31l16-21.63a45.47,45.47,0,0,1-1.15,29.1c-1.58,4.07-3.8,8.23-3.16,12.56s6.08,8,9.41,5.21c3.14,11-10.18,21.55-7.69,32.74,1.77,7.94,11.14,13.57,10.19,21.65-.74,6.32-7.33,9.87-12.23,13.93A34.84,34.84,0,0,0,381.23,568c.46,2.87,1,6.49-1.45,8.07-1.45.94-3.35.66-5,.27-7.19-1.66-14.14-4.57-21.5-5.06s-15.63,2.19-18.92,8.79c-2.78,5.58-1.78,13.31-6.75,17.08-3.66,2.79-9,1.91-13-.26s-7.44-5.44-11.54-7.52c-4.66-2.35-10-3-15.22-3a57.92,57.92,0,0,0-29,8.25c-5.84,3.52-12.05,8.29-18.69,6.78-5.31-1.22-8.91-6.17-11.16-11.13s-3.73-10.39-7.17-14.61c-4.58-5.63-12-8.25-19.19-9s-14.5,0-21.75-.08c-2.86,0-5.91-.29-8.18-2-3-2.27-3.78-6.37-4.11-10.1-.83-9.28-.12-18.63-.42-27.94A129.34,129.34,0,0,0,153.48,471"/><path class="cls-3" d="M258.07,455.18a31.51,31.51,0,0,0,23,23.29c3.62.85,7.35.85,11,1.48a57.63,57.63,0,0,1,10.14,3.19c5.69,2.08,12.77,3.6,18.05-.38,2.31-1.74,3.49-4.37,5.43-6.44,2.16-2.29,5-2.32,8-2s5.75.8,8.62.19a10.8,10.8,0,0,0,6.74-4.9c3.54-5.44,2.68-12.12,4.92-18a9.27,9.27,0,0,1,5.95-5.88,4.86,4.86,0,0,1,3.38.2c1.42.68,2.38,2.07,3.54,3.09,6.15,5.4,12.79-1,16.52-6q7.88-10.6,15.73-21.23l-2.74-.36a44.16,44.16,0,0,1-.06,25.11c-2,6.62-8,15.59-1.42,21.56,2.59,2.36,6.21,3.14,9.09.86l-2.5-.66c1.66,6.15-2,12.14-4.58,17.5-2.77,5.83-4.84,12-2.08,18.25a46.14,46.14,0,0,0,5.13,8c1.72,2.4,3.6,5,4,8,.88,6.86-6.59,10.93-11.12,14.55a36.43,36.43,0,0,0-13.47,28.23,35.26,35.26,0,0,0,.43,5.33,13.89,13.89,0,0,1,.25,4.89c-.39,1.85-1.94,2.28-3.66,2a45.73,45.73,0,0,1-6.1-1.53,118.76,118.76,0,0,0-12.72-3.3c-6.73-1.14-14.21-.63-19.86,3.61a15.93,15.93,0,0,0-5.56,7.66c-1.09,3.13-1.38,6.48-2.39,9.63s-3.12,5.75-6.6,6.15c-3.78.43-7.33-1.29-10.39-3.31-3.43-2.28-6.57-5-10.38-6.62A34,34,0,0,0,290,584.89a58.6,58.6,0,0,0-24.38,4.58,76.89,76.89,0,0,0-10.91,5.87c-3.26,2-6.76,4.26-10.66,4.76-8,1-12.4-6.82-14.95-13.13-1.49-3.66-2.84-7.46-5.09-10.73a23.29,23.29,0,0,0-8.06-7.19c-7.28-4-15.69-4.4-23.8-4.21-4.46.1-9,.47-13.44.14a9.41,9.41,0,0,1-5.48-1.85,8.46,8.46,0,0,1-2.47-4.19c-1.16-4-1.11-8.36-1.17-12.47-.08-4.66,0-9.32,0-14A133.89,133.89,0,0,0,160,481.54c-1.57-3.85-3.31-7.63-5.23-11.31-.89-1.72-3.48-.2-2.59,1.51a127.9,127.9,0,0,1,14.17,50.44c.63,9.42-.08,18.86.37,28.28.18,3.85.34,8,2,11.51s4.94,5.39,8.76,5.88c4.42.57,9,.14,13.44,0a70.65,70.65,0,0,1,13.72.56c7.63,1.29,14.54,4.8,18.29,11.81,3.58,6.7,5,14.83,11.21,19.82a13.52,13.52,0,0,0,10.32,3c3.94-.51,7.51-2.5,10.86-4.55a86.09,86.09,0,0,1,11.08-6.13,57.41,57.41,0,0,1,12.09-3.61c8.25-1.52,17.81-1.69,25.25,2.72,6.51,3.86,12.7,10.54,21,8.58,7.65-1.8,8-10,9.74-16.22a13.33,13.33,0,0,1,5.19-7.75,19.74,19.74,0,0,1,9.33-3.26c8.47-.82,16.56,2.83,24.63,4.78,1.87.45,3.92.9,5.8.24a5.29,5.29,0,0,0,3.29-3.51c1-3.31-.31-7-.43-10.34a33.87,33.87,0,0,1,6.2-20.58,35.08,35.08,0,0,1,7.61-7.63c2.71-2.07,5.6-4.06,7.76-6.73a12.31,12.31,0,0,0,3-8.82,18.29,18.29,0,0,0-3.62-8.59,74.43,74.43,0,0,1-5.42-8,13.13,13.13,0,0,1-1.14-8.94c1.4-6.44,5.59-11.84,7.37-18.15a16.78,16.78,0,0,0,.23-9,1.53,1.53,0,0,0-2.51-.66c-2,1.55-4.71-.35-5.87-2-2-2.85-.87-6.64.24-9.63a83.59,83.59,0,0,0,3.78-10.9,48.09,48.09,0,0,0,1.16-11.09,47.24,47.24,0,0,0-1.9-12.57,1.52,1.52,0,0,0-2.75-.36l-13.65,18.42c-2.56,3.45-8.33,12.53-13.62,8.4-2.23-1.74-3.65-4.06-6.68-4.51a9.77,9.77,0,0,0-7.48,2.37c-5.09,4.11-5,11-6.23,16.87a15.83,15.83,0,0,1-3.21,7.31c-2,2.21-4.55,2.74-7.4,2.58s-5.7-.83-8.57-.5a9.87,9.87,0,0,0-6.87,3.93c-1.71,2.16-3,4.68-5.54,6a13.44,13.44,0,0,1-8.35.82c-3.37-.62-6.54-2-9.75-3.18A42.23,42.23,0,0,0,289,476.54a41.31,41.31,0,0,1-10.52-2,27.75,27.75,0,0,1-7.87-4.63A28.5,28.5,0,0,1,261,454.38c-.42-1.88-3.31-1.08-2.89.8Z"/></g><path class="cls-4" d="M123.15,150.13a78.13,78.13,0,0,1-54.12,15c-4.84-.49-9.7-1.45-14.54-.91s-9.82,2.93-11.9,7.33c-2.17,4.59-.56,10.32,2.93,14S54,191.08,59,191.94c11.15,1.91,22.69-.79,32.94-5.59s19.38-11.6,28.45-18.37"/><path class="cls-3" d="M122.4,148.83A77.24,77.24,0,0,1,88.69,163a75.24,75.24,0,0,1-18,.71c-6.57-.52-13.35-2.25-19.86-.36-5.19,1.51-9.83,5.29-10.6,10.89s2,10.84,6.29,14.16c4.77,3.71,10.95,5.13,16.89,5.53a54.4,54.4,0,0,0,19.3-2.45c14.36-4.36,26.55-13.38,38.43-22.23,1.53-1.14,0-3.75-1.52-2.59-10.1,7.53-20.4,15.3-32.2,20A59.15,59.15,0,0,1,69.63,191c-5.85.39-12.18-.11-17.54-2.63-4.71-2.21-8.77-6.37-9-11.84s4-9,8.88-10.3c6.23-1.69,12.85.13,19.13.6a79.83,79.83,0,0,0,52.79-15.36c1.53-1.13,0-3.74-1.51-2.59Z"/><path class="cls-4" d="M127.75,112c-23,2.64-46-1.78-63.21-12.14C60.16,97.2,56.09,94.17,51,92.41s-11.62-2-16.72.74C29,96,26.53,101.59,27.36,106.28s4.39,8.57,8.66,11.58c9.53,6.71,22.68,9.72,36,10.36s27-.92,40.56-2.47"/><path class="cls-3" d="M127.75,110.47A108.8,108.8,0,0,1,84.82,107a84.75,84.75,0,0,1-18.5-7.87c-5.9-3.42-11.43-7.75-18.29-9.07-6.26-1.2-13.38-.25-18.06,4.43a13.77,13.77,0,0,0-3.07,15.32c2.54,5.79,8.31,9.8,13.77,12.57a66.62,66.62,0,0,0,19.53,6.09c17.37,2.85,35.05.75,52.39-1.23,1.9-.22,1.92-3.22,0-3-15,1.72-30.29,3.54-45.44,2.12a77.7,77.7,0,0,1-19.35-4.14c-5.75-2.1-11.66-5.17-15.73-9.85a12.67,12.67,0,0,1-3.35-7.31,11,11,0,0,1,2-6.88C34.35,93,41.41,91.85,47.24,93c6.6,1.26,11.89,5.47,17.57,8.76A87.13,87.13,0,0,0,82,109.28a110.15,110.15,0,0,0,45.75,4.19c1.89-.21,1.92-3.22,0-3Z"/><path class="cls-4" d="M171.91,72.62A78.17,78.17,0,0,1,124,43.39c-2.95-3.87-5.58-8.07-9.29-11.23S105.82,27,101.18,28.5c-4.82,1.56-7.9,6.66-8.2,11.71s1.75,10,4.54,14.23c6.23,9.44,16.1,16,26.61,20.2s21.73,6.19,32.86,8.18"/><path class="cls-3" d="M172.31,71.17A77.25,77.25,0,0,1,139.78,57,76.16,76.16,0,0,1,127,44.79c-4-4.82-7.13-10.55-12.16-14.43-4.61-3.55-11.15-5.38-16.46-2.22C93.53,31,91.12,36.9,91.49,42.37c.43,6.38,3.81,12.15,7.82,17A53.9,53.9,0,0,0,113,70.8c13.22,8,28.64,10.79,43.64,13.46,1.88.34,2.69-2.55.79-2.89-12.9-2.3-26.14-4.6-38-10.47a57.75,57.75,0,0,1-14.17-9.65c-4.25-4-8.13-9-9.9-14.63-1.62-5.18-1.06-11.29,3.3-15,4.51-3.84,10.9-1.85,15,1.61,4.58,3.88,7.56,9.28,11.38,13.84a77.88,77.88,0,0,0,12.19,11.68,79.49,79.49,0,0,0,34.33,15.32c1.89.34,2.7-2.55.8-2.89Z"/><path class="cls-4" d="M282.52,152.58a78.15,78.15,0,0,0,54.12,15c4.85-.49,9.71-1.45,14.55-.91s9.82,2.93,11.9,7.33c2.16,4.59.55,10.32-2.93,14s-8.49,5.57-13.48,6.43c-11.15,1.91-22.7-.79-32.94-5.59s-19.39-11.6-28.45-18.37"/><path class="cls-3" d="M281.76,153.87a79.3,79.3,0,0,0,31.54,14,80.19,80.19,0,0,0,17.07,1.57c6.46-.12,12.9-1.76,19.37-1.41,4.83.27,10.58,2.4,12.32,7.38s-1,10.4-5.05,13.37c-4.67,3.46-10.83,4.58-16.52,4.73a53.69,53.69,0,0,1-18-2.83c-13.54-4.41-25.13-13.1-36.42-21.52-1.55-1.16-3,1.45-1.51,2.59,10.69,8,21.58,16.05,34.17,20.79,11.36,4.27,25.47,6.22,36.76.67,5.08-2.5,9.15-7,10-12.76a12.67,12.67,0,0,0-6.81-13.05c-5.75-3.14-12.32-2.51-18.57-1.74a83.39,83.39,0,0,1-18.88.39,76.94,76.94,0,0,1-37.88-14.75c-1.55-1.15-3,1.45-1.52,2.59Z"/><path class="cls-4" d="M274.93,112.42c23,2.64,46-1.78,63.2-12.14,4.38-2.63,8.45-5.66,13.55-7.42s11.62-2,16.72.74c5.31,2.87,7.74,8.44,6.91,13.13s-4.39,8.57-8.66,11.58c-9.53,6.71-22.67,9.72-36,10.36s-27-.92-40.57-2.47"/><path class="cls-3" d="M274.93,113.92A111.69,111.69,0,0,0,316.2,111,91,91,0,0,0,334,104.28c5.86-3,11.08-7.33,17.25-9.67,5.61-2.13,12.55-2.46,17.69,1.07a11,11,0,0,1,3.95,13.74c-2.68,5.47-8.51,9-13.84,11.54a67.6,67.6,0,0,1-18.66,5.28c-16.66,2.48-33.69.36-50.3-1.54-1.91-.22-1.89,2.78,0,3,15.62,1.79,31.49,3.69,47.2,1.94a76.63,76.63,0,0,0,20.31-4.81c5.87-2.37,11.88-5.7,15.86-10.76,3.64-4.63,4.67-10.52,1.77-15.79C372.1,92.6,365.68,90,359.43,90c-7,0-13,3.27-18.81,6.93a89.38,89.38,0,0,1-18,8.94,107,107,0,0,1-47.72,5c-1.92-.22-1.9,2.78,0,3Z"/><path class="cls-4" d="M231.77,75.07a78.12,78.12,0,0,0,47.94-29.23c3-3.87,5.59-8.07,9.29-11.23s8.86-5.16,13.49-3.66c4.82,1.56,7.91,6.66,8.21,11.71s-1.76,10-4.55,14.23c-6.23,9.44-16.1,16-26.6,20.2s-21.74,6.19-32.87,8.18"/><path class="cls-3" d="M232.17,76.51a79.27,79.27,0,0,0,31-12.88,79.49,79.49,0,0,0,12.78-11c4.07-4.36,7.17-9.45,11.09-13.92,3.62-4.14,9.25-8.18,15-6.29,5.09,1.65,7.43,7.46,7.1,12.42-.41,6-4,11.52-7.85,15.89A53,53,0,0,1,288,71.37c-12.73,7.32-27.43,9.91-41.71,12.45-1.9.34-1.09,3.23.8,2.89,13.58-2.42,27.41-4.92,39.78-11.31A59,59,0,0,0,301.42,65c4.34-4.31,8.2-9.6,9.94-15.54,1.66-5.64.92-11.91-3.08-16.41s-10.34-5-15.68-2.52c-5.83,2.68-9.47,8.19-13.15,13.18a76.62,76.62,0,0,1-12.17,13,76.93,76.93,0,0,1-35.91,16.9c-1.9.34-1.09,3.23.8,2.89Z"/><path class="cls-4" d="M377.72,506.26q-2.12-21.47-4.25-42.93c-13.31,17.49-30.4,33.34-51.63,39.07s-46.95-1.28-57.71-20.45c-7.84-14-6.61-31-5.15-47l-.15-.55c10.43-24.22,16.67-55,16.67-88.42,0-59.89-20-111.08-48.21-131.74,39.47-9.43,68.21-38.44,68.21-72.76,0-42-43-76-96-76s-96,34-96,76c0,34.32,28.74,63.33,68.21,72.76C143.48,234.92,123.5,286.11,123.5,346c0,30.54,5.2,58.82,14,81.94-.39-.57-.78-1.13-1.14-1.72,9,25.74,19.36,51.26,34.79,73.73s36.35,41.88,61.79,51.67c22.37,8.61,47,9.42,70.91,7.67,20.62-1.51,41.84-5.11,59-16.61,5.62-3.76,10.88-8.55,13.44-14.81C379.11,521.12,378.44,513.52,377.72,506.26Z"/><path class="cls-3" d="M379.22,506.26q-2.12-21.47-4.25-42.93a1.51,1.51,0,0,0-2.79-.76c-16.33,21.36-39.91,41.78-68.5,40.18-12-.67-24.13-5.17-32.57-13.91C260.79,478.13,259,463,259.5,448.76c.14-3.78.43-7.54.76-11.3.07-.83.14-1.66.22-2.49,0-.21,0-.85-.06-.47a38.15,38.15,0,0,1,1.85-4.51,189.84,189.84,0,0,0,6.61-20.11,237.22,237.22,0,0,0,7.41-44.52c2.2-29.82-.41-60.44-9.08-89.11-6.51-21.49-16.71-43.63-33.72-58.87-1.74-1.56-3.56-3-5.44-4.41l-.36,2.74c31.37-7.61,62.7-29.94,68.4-63.63a64.36,64.36,0,0,0-7.56-42.24c-7.6-13.5-19.53-24.25-33-31.77C225.08,61,186.12,59.46,154,72.93c-27.7,11.63-51.72,36.43-52,68-.33,33.78,26.45,59.76,56.34,70.88a115.32,115.32,0,0,0,13,3.94L171,213c-20,14.77-31.66,39-38.83,62.2-9.84,31.86-12.21,66.26-8.58,99.32a219.34,219.34,0,0,0,12.54,53.85l2.75-1.16c-.39-.57-.77-1.13-1.14-1.71-.88-1.37-3.33-.52-2.74,1.15,14.72,42.05,34.07,85.13,71.23,112,18.23,13.19,39.34,20.21,61.67,22.19a223.42,223.42,0,0,0,36-.05,176.75,176.75,0,0,0,33.23-5.14c11.5-3.11,23.12-8,32.17-15.94a29.67,29.67,0,0,0,9.37-13.91c1.83-6.34,1.21-13.07.57-19.54-.19-1.9-3.19-1.92-3,0,.56,5.64,1.17,11.48,0,17.07A25.87,25.87,0,0,1,368,536.8c-7.78,7.2-18.08,11.83-28.11,14.91a153.83,153.83,0,0,1-31.86,5.74,241.86,241.86,0,0,1-33.94.83c-22.07-1.15-43.37-6.86-61.92-19.1-17.05-11.24-31.08-26.65-42.2-43.67C156,474,146.3,450,137.84,425.83L135.1,427q.56.87,1.14,1.71c.89,1.31,3.38.54,2.74-1.15-11.75-31-15.5-64.83-13.49-97.76,1.8-29.29,8.28-59.42,22.74-85.21,6.17-11,14-21.46,24.24-29a1.53,1.53,0,0,0-.36-2.75c-30.25-7.33-60.37-28.5-66.2-60.9-5.43-30.21,13.84-57.27,39.34-71.41C174.65,64.2,212,62.69,243,75.35c26.91,11,50.66,35,51,65.54.32,32.65-25.91,57.71-54.84,68.24a111,111,0,0,1-12.27,3.68,1.53,1.53,0,0,0-.36,2.75c18.54,13.68,29.58,36.17,36.55,57.55,9.49,29.13,12.39,60.4,10.31,90.89a232.45,232.45,0,0,1-7.83,46.64,186.36,186.36,0,0,1-6.74,19.95,14.47,14.47,0,0,0-1.46,4c-.13,1.6-.14,3.29-.28,4.92-.31,3.76-.56,7.54-.65,11.32-.3,13.83,2,28.22,11.45,38.89,7.9,8.9,19.41,14,31.06,15.54,27.71,3.72,52.13-13.13,69.4-33.23,2.22-2.59,4.35-5.26,6.43-8l-2.8-.75q2.13,21.46,4.25,42.93C376.41,508.17,379.41,508.19,379.22,506.26Z"/><path class="cls-5" d="M171.05,176.86a14.44,14.44,0,0,1,3.52,3.54l2.36-1.82a9.14,9.14,0,0,1-1.16-1.25c-.22-.3-.49-1.12-.86-1s0,0,0,.35.18.87.21,1.34a1.51,1.51,0,0,0,3,.39,13.85,13.85,0,0,0,.64-4.48l-1.11,1.45c5-1.52,10.09-3.52,15.28-4.18,5.36-.67,10.58.87,15.65,2.38l-.89-2.2-2.4,4.15a7.55,7.55,0,0,1-1.12,1.88c-.51.42-1.36.26-2,.27l-4.94,0c-1.44,0-3.26.35-4.54-.42a27.37,27.37,0,0,0-3.27-2,12.76,12.76,0,0,0-3.55-.89,30,30,0,0,0-8.13.5l.8,2.89c4.12-1.21,8.16-2.59,12.22-4a17.34,17.34,0,0,1,6-1,22.84,22.84,0,0,1,5.35.43c1.35.34,2.21,1.34,1,2.55s-3.47.83-5,.52a34.72,34.72,0,0,1-11.25-4.44v2.59a5.66,5.66,0,0,1,2.53-.59,5.3,5.3,0,0,1,1.19.14,5.5,5.5,0,0,1,.58.16c.63.39.9,0,.82-1.11a1.51,1.51,0,0,0,.75,2.8c1.33,0,2.37.8,3.46,1.46a7.36,7.36,0,0,0,3.47,1.22,3.91,3.91,0,0,0,4.11-3.59,1.52,1.52,0,0,0-1.1-1.45L195.57,172l-.4,3,11.82-.67c1.92-.11,1.93-3.11,0-3l-11.82.67c-1.6.09-2.14,2.58-.4,2.95l7,1.47-1.1-1.44c-.09,1.51-3-.16-3.43-.45a8.33,8.33,0,0,0-4.61-1.64l.76,2.79a1.91,1.91,0,0,0,.89-2.32,3.22,3.22,0,0,0-2.23-2,8.69,8.69,0,0,0-6.81.52,1.52,1.52,0,0,0,0,2.59,37.54,37.54,0,0,0,10.88,4.5c3.29.78,7.53,1.4,9.7-1.88,2-2.95-.06-6.06-3.2-6.77a27.35,27.35,0,0,0-5.27-.49,20.3,20.3,0,0,0-6.16.7c-2.17.63-4.26,1.53-6.41,2.25-2.36.78-4.74,1.48-7.12,2.18-1.9.56-1.07,3.19.8,2.89,2.75-.43,5.7-.86,8.45-.17a10.41,10.41,0,0,1,3.56,1.84,6.72,6.72,0,0,0,4.21,1.29c1.73,0,3.46,0,5.19,0a18.77,18.77,0,0,0,4.74-.19c1.51-.44,2.21-1.79,2.94-3.05l2.64-4.57a1.52,1.52,0,0,0-.9-2.2c-5.31-1.59-10.82-3.16-16.42-2.49s-10.83,2.68-16.1,4.28a1.52,1.52,0,0,0-1.1,1.45,11.53,11.53,0,0,1-.53,3.69l2.94.4a5.5,5.5,0,0,0-1.21-3.68,3.16,3.16,0,0,0-3.44-.69c-3.33,1.48-.3,5.55,1.32,7.07,1.19,1.11,3.37-.36,2.36-1.82a18.2,18.2,0,0,0-4.6-4.62c-1.59-1.11-3.09,1.49-1.51,2.59Z"/><path d="M148.38,103.82a41.55,41.55,0,0,0-20,28.59c-1,5.67-.39,12.28,4,16,3.53,2.93,8.78,3.17,13,1.43s7.6-5.16,10.23-8.92c4.46-6.39,7.16-14.37,5.74-22s-7.67-14.63-15.42-15.38"/><path d="M147.62,102.53a43,43,0,0,0-17.54,19.37c-3.31,7.3-5.86,17.62-1.08,24.87a12.83,12.83,0,0,0,10.94,5.63,18.4,18.4,0,0,0,12-5c7-6.15,11.82-16.25,11.32-25.63-.51-9.58-7.34-18.74-17.26-19.82-1.92-.2-1.9,2.8,0,3,7.34.8,12.78,7.54,14,14.49,1.48,8.41-2.41,17.42-8,23.62-2.62,2.93-5.92,5.4-9.87,6.12-3.72.68-7.79-.34-10.18-3.4-2.24-2.87-2.68-6.79-2.47-10.31a34.87,34.87,0,0,1,2.72-11,40.2,40.2,0,0,1,16.92-19.33,1.5,1.5,0,0,0-1.52-2.59Z"/><path d="M240.84,106.94a41.57,41.57,0,0,1,20,28.6c1,5.66.39,12.28-4,16-3.53,2.94-8.78,3.17-13,1.44s-7.61-5.17-10.23-8.93c-4.46-6.39-7.16-14.37-5.74-22s7.66-14.64,15.42-15.38"/><path d="M240.08,108.24A40.23,40.23,0,0,1,255.81,125c3.14,6.23,5.73,15,2.73,21.72A9.63,9.63,0,0,1,250,152.5a15.14,15.14,0,0,1-10.75-4.2c-6.16-5.51-10.47-14.22-10.33-22.55.15-8.08,5.73-16.72,14.3-17.65,1.89-.21,1.92-3.21,0-3-8.44.91-15.12,8-16.8,16.13-2,9.63,2.15,19.76,8.49,26.94,3,3.36,6.85,6.21,11.33,7.05a13.87,13.87,0,0,0,12-3c6.47-6,4.85-16.66,2.15-24a43.38,43.38,0,0,0-18.85-22.54,1.5,1.5,0,0,0-1.51,2.59Z"/><path class="cls-3" d="M142.12,172.12c4.7,4.59,11.32,6,17.71,5.52,7.38-.53,14.09-3.39,21-5.84a55,55,0,0,1,11.42-3,31.67,31.67,0,0,1,11.94,1c7.1,1.86,13.89,5.17,21.33,5.52,6.72.31,14-1.72,17.7-7.78a1.5,1.5,0,0,0-2.59-1.51c-3,4.92-9,6.43-14.42,6.31-7.08-.16-13.64-3.33-20.37-5.2a36.44,36.44,0,0,0-10.93-1.51,42.81,42.81,0,0,0-11,2.07c-6.81,2.11-13.31,5.3-20.36,6.56-6.62,1.19-14.19.76-19.25-4.18-1.38-1.35-3.5.77-2.12,2.12Z"/><path class="cls-3" d="M237.41,163.56l.4,0c.29,0-.13,0,.05,0s.48.08.72.14a8.44,8.44,0,0,1,1.38.42s.36.15.19.07l.18.09c.22.1.43.21.64.33a9.78,9.78,0,0,1,1.22.79c.14.1-.15-.13.06,0l.3.25.48.45c.17.17.34.35.5.53l.21.25c.28.33-.16-.23.09.11a10.49,10.49,0,0,1,.78,1.22l.29.59c.18.39-.1-.27.06.13l.13.37a1.54,1.54,0,0,0,1.85,1.05,1.51,1.51,0,0,0,1-1.84,12.11,12.11,0,0,0-10.57-8,1.5,1.5,0,0,0,0,3Z"/><path class="cls-6" d="M180.51,182.88c1.17-1.22,3.08-2.76,4.89-2,.77.34,1.19,1.08,1.74,1.66a3.75,3.75,0,0,0,2.49,1.23,1.5,1.5,0,0,0,1.44-1.9,4.09,4.09,0,0,0-3.19-2.83,1.51,1.51,0,0,0-1.15,2.75c.24.16,2.59,2.23,2.55,2.25q0-.81-.24-.48a.75.75,0,0,1-.2.15c-.18,0-.45.19-.63.22a4.65,4.65,0,0,1-1.62-.1c-2.42-.49-4.82-1.17-7.18-1.88l.66,2.51a4.69,4.69,0,0,1,2.28-1.08c.42-.1.84-.18,1.27-.25a10.47,10.47,0,0,1,1.12-.1l1.45-1.9a4.34,4.34,0,0,1-2.14-.31l-1.16,2.74,4,1.29,1.78.58a7.32,7.32,0,0,1,1.82.58l-.38-1.46,0,.16c-.18,1,.66,2.25,1.84,1.84a56.08,56.08,0,0,1,9.2-2.32l-.8-2.9-5.11,1.42a1.52,1.52,0,0,0-.36,2.74,2.19,2.19,0,0,0,1.49.37,1.55,1.55,0,0,0,1.5-1.5,1.5,1.5,0,0,0-1.5-1.5l0,0-.36,2.74,5.11-1.41c1.9-.53,1.07-3.2-.8-2.9a56,56,0,0,0-9.19,2.33l1.84,1.84c.37-2.16-1.94-2.45-3.51-3l-5.72-1.87c-1.59-.52-2.72,2-1.16,2.74a7.46,7.46,0,0,0,3.66.72,1.52,1.52,0,0,0,1.45-1.9c-.75-2.18-2.83-2.33-4.82-2a8.9,8.9,0,0,0-4.87,2.1,1.51,1.51,0,0,0,.66,2.51c1.93.57,3.87,1.1,5.83,1.56,1.68.4,3.47.86,5.15.24,1.4-.51,2.87-1.93,2.5-3.55s-2.59-3.05-3.85-3.9L187.08,182a1.18,1.18,0,0,1,1.1.73l1.45-1.9c-.24,0-.62-.64-.76-.8a7.09,7.09,0,0,0-1.09-1.1,5.48,5.48,0,0,0-3.23-1.18c-2.4-.08-4.57,1.39-6.16,3-1.33,1.4.78,3.52,2.12,2.12Z"/><path class="cls-3" d="M209.94,170a38.53,38.53,0,0,1-7.45,11.55c-3.26,3.39-7.4,4.53-12,4.4a25.74,25.74,0,0,1-20.08-10.77c-1.1-1.57-3.7-.07-2.59,1.52a29,29,0,0,0,16.88,11.49,27.24,27.24,0,0,0,10.6.44,16.71,16.71,0,0,0,10-5.74,41.81,41.81,0,0,0,7.21-11.38c.75-1.75-1.84-3.28-2.59-1.51Z"/><path class="cls-3" d="M178.44,182.09a7,7,0,0,1,12.55.41,1.5,1.5,0,1,0,2.59-1.52,10,10,0,0,0-17.73-.4c-.94,1.68,1.65,3.2,2.59,1.51Z"/><path class="cls-3" d="M191.3,184.18a15.43,15.43,0,0,1,11.44-1.57c1.88.47,2.67-2.42.8-2.89a18.66,18.66,0,0,0-13.76,1.87,1.5,1.5,0,0,0,1.52,2.59Z"/><path class="cls-3" d="M144.34,245.73l-8.76,23.9c-2.57,7-5.6,14.31-4.09,21.9,1.42,7.2,7.39,11.81,14.25,13.57a25.51,25.51,0,0,0,31.68-20.46c.32-1.88-2.57-2.7-2.89-.79a23.28,23.28,0,0,1-8.76,14.59,22.66,22.66,0,0,1-17.62,4.12c-6.42-1.18-12.32-4.92-13.73-11.63s1.51-13.57,3.8-19.8l9-24.6c.66-1.82-2.24-2.6-2.9-.8Z"/><path class="cls-3" d="M161.08,273.92a6.82,6.82,0,1,0,13.09,3.81l-2.89-.8c-1,3.75,2.36,7.47,6.15,7.36,4.07-.12,6.75-4,7.06-7.75l-2.94.4c.44,2.82,1.34,5.93,4.33,7,2.65.92,5-.73,5.82-3.2.94-2.7.7-6,.5-8.79a43.15,43.15,0,0,0-1.79-9.77,13.23,13.23,0,0,0-4.77-7.23,18.33,18.33,0,0,0-8-3.08,24.89,24.89,0,0,0-16.91,3.71A34.46,34.46,0,0,0,148.46,270c-.82,1.74,1.77,3.26,2.59,1.52,4-8.4,11.27-15.86,20.94-16.84,4.5-.46,10.08.4,13.3,3.89,1.68,1.83,2.32,4.46,2.89,6.81a40.17,40.17,0,0,1,1.11,8.17,36,36,0,0,1-.09,4.53,4.6,4.6,0,0,1-.94,2.74c-.79.76-1.91.17-2.51-.54-.93-1.11-1.09-2.76-1.31-4.14-.28-1.77-2.81-1.16-2.95.4-.17,2.06-1.59,4.37-3.78,4.72-1.9.3-4.06-1.57-3.54-3.53a1.5,1.5,0,0,0-2.89-.8,3.83,3.83,0,1,1-7.31-2.21c.6-1.84-2.3-2.63-2.89-.8Z"/><path class="cls-3" d="M252,246l8,21.81c2.35,6.42,5.55,13.21,5.13,20.2a13.79,13.79,0,0,1-3.51,8.77,18.2,18.2,0,0,1-8.12,4.68,22.55,22.55,0,0,1-28.79-18.14c-.33-1.9-3.22-1.1-2.9.79a26,26,0,0,0,9.69,16,25.7,25.7,0,0,0,19.37,4.94c6.87-1,13.69-4.82,16.18-11.59,2.61-7.1.17-14.66-2.3-21.41q-4.92-13.45-9.86-26.89c-.66-1.8-3.56-1-2.89.8Z"/><path class="cls-3" d="M235.29,274.23a3.83,3.83,0,1,1-7.3,2.21,1.51,1.51,0,0,0-2.9.8c.53,2-1.64,3.83-3.54,3.53-2.19-.35-3.61-2.66-3.78-4.72-.13-1.55-2.67-2.19-3-.4a10.25,10.25,0,0,1-1,3.66c-.45.76-1.45,1.7-2.42,1.31-1.67-.67-1.44-4.08-1.46-5.45a40.5,40.5,0,0,1,.68-8.22,24.61,24.61,0,0,1,2.27-7.38c2.36-4.2,8.05-5.57,12.53-5.49a22.71,22.71,0,0,1,13.16,4.68A32.62,32.62,0,0,1,248.21,271c.83,1.74,3.41.22,2.59-1.52-4.94-10.39-14.88-19.1-27-18.4-5.78.33-11.83,2.8-14.19,8.42a36.11,36.11,0,0,0-2.3,9.33,35.6,35.6,0,0,0-.13,9.78c.41,2.64,2.09,5.33,5.12,5,3.67-.39,4.92-4.1,5.41-7.21l-2.95-.4c.31,3.74,3,7.63,7.06,7.75,3.79.11,7.15-3.61,6.16-7.36l-2.9.8a6.83,6.83,0,1,0,13.1-3.81c-.6-1.83-3.5-1.05-2.9.8Z"/><path class="cls-3" d="M145.41,384.15a54.44,54.44,0,0,1,7.25-9.44,42.12,42.12,0,0,1,9.38-7.66c3.06-1.74,7-2.68,10.18-.73s3.47,6.88,3.61,10.35c.33,7.86-1.22,15.69-.69,23.55a30.29,30.29,0,0,0,2.65,10.92c1.67,3.55,4.7,6.5,5.87,10.28a7.55,7.55,0,0,1-.07,5.36,4.8,4.8,0,0,1-4.45,2.56c-4.45,0-7.52-3.81-10.1-6.93-1-1.27-2.74.15-2.51,1.46.89,5.06-5.3,10.21-10,7.76-3.91-2-5.19-8.14-2.15-11.41a1.5,1.5,0,0,0-2.12-2.13c-2.36,2-6.59,2.07-8.29-.83a5.06,5.06,0,0,1-.43-4.16c.61-1.7,2.25-2.44,3.75-3.21a11.35,11.35,0,0,0,5.75-6.24,50.11,50.11,0,0,0,1.89-8c.57-2.7,1.35-5.58,4-6.95,1.71-.9.2-3.49-1.51-2.59-6.13,3.21-5,11.26-7.24,16.77a7.55,7.55,0,0,1-2.69,3.51c-1.75,1.16-3.84,1.77-5.31,3.36a7.86,7.86,0,0,0,.12,10.28c3.13,3.54,8.74,3.11,12.11.22l-2.12-2.13c-3.54,3.82-3.21,9.89,0,13.82,3.73,4.58,10.33,4.07,14.29.07a10.09,10.09,0,0,0,2.93-8.91l-2.51,1.46c2.66,3.22,5.72,6.75,10,7.59,3.86.74,8-.66,9.52-4.5s0-8.16-2.13-11.52c-1.2-1.92-2.57-3.72-3.61-5.73a23.46,23.46,0,0,1-2-5.94c-1.82-8.78.35-17.86.17-26.71-.09-4.07-.29-9.05-3.08-12.28-2.61-3-7.11-3.75-10.84-2.82-4.86,1.22-9,4.8-12.6,8.17a57.58,57.58,0,0,0-9.53,11.85c-1,1.65,1.58,3.16,2.59,1.51Z"/><path class="cls-4" d="M247,377.51a55.76,55.76,0,0,1,13.49-15.14,20.19,20.19,0,0,1,8.58-4.36c3.19-.57,6.81.31,8.78,2.88a11.54,11.54,0,0,1,1.94,5.33c2.06,13.15-3.58,27.67,2.75,39.38,1.54,2.86,3.73,5.36,5,8.34s1.46,6.81-.79,9.15-6,2.31-8.89.9-5-3.95-7-6.4c1.16,5.8-5.23,11.66-10.91,10s-7.9-10.05-3.79-14.31a7.38,7.38,0,0,1-9.28.46c-2.63-2.12-3.08-6.55-.71-9,1.52-1.55,3.81-2.1,5.51-3.45,5.91-4.7,2.55-16.46,9.31-19.83"/><path class="cls-3" d="M248.34,378.26a55.33,55.33,0,0,1,7.25-9.44,42.63,42.63,0,0,1,9.38-7.66c3.07-1.73,7-2.68,10.18-.73s3.47,6.89,3.62,10.36c.32,7.86-1.23,15.69-.69,23.55a30.12,30.12,0,0,0,2.64,10.92c1.67,3.55,4.7,6.49,5.87,10.28a7.47,7.47,0,0,1-.07,5.35,4.76,4.76,0,0,1-4.45,2.56c-4.44,0-7.52-3.8-10.1-6.93-1.05-1.27-2.73.15-2.5,1.46.88,5.07-5.31,10.22-10,7.76-3.92-2-5.19-8.13-2.16-11.41a1.5,1.5,0,0,0-2.12-2.12c-2.36,2-6.59,2.07-8.28-.83a5,5,0,0,1-.43-4.17c.6-1.69,2.24-2.44,3.74-3.21a11.26,11.26,0,0,0,5.75-6.23,49.17,49.17,0,0,0,1.89-8c.58-2.7,1.35-5.57,4-6.94,1.71-.9.19-3.49-1.52-2.59-6.13,3.2-5,11.25-7.24,16.77a7.53,7.53,0,0,1-2.69,3.5c-1.75,1.17-3.84,1.78-5.3,3.36a7.87,7.87,0,0,0,.12,10.29c3.13,3.54,8.74,3.11,12.1.21l-2.12-2.12c-3.54,3.82-3.2,9.89,0,13.81,3.73,4.59,10.34,4.08,14.3.08a10.08,10.08,0,0,0,2.92-8.91l-2.51,1.46c2.66,3.22,5.72,6.74,10,7.58,3.86.75,8-.66,9.52-4.5s0-8.15-2.13-11.52c-1.2-1.91-2.56-3.72-3.6-5.73a22.76,22.76,0,0,1-2-5.93c-1.83-8.78.35-17.86.16-26.71-.09-4.07-.28-9-3.07-12.29-2.62-3-7.11-3.74-10.84-2.81-4.86,1.21-9.05,4.79-12.61,8.17a57.58,57.58,0,0,0-9.53,11.84c-1,1.65,1.58,3.16,2.59,1.51Z"/><path class="cls-7" d="M152.13,115.44a1.5,1.5,0,0,0,0-3,1.5,1.5,0,0,0,0,3Z"/><path class="cls-7" d="M155.39,120.88a1.5,1.5,0,0,0,0-3,1.5,1.5,0,0,0,0,3Z"/><path class="cls-7" d="M244.08,114.9a1.5,1.5,0,0,0,0-3,1.5,1.5,0,0,0,0,3Z"/><path class="cls-7" d="M246.26,120.34a1.5,1.5,0,0,0,0-3,1.5,1.5,0,0,0,0,3Z"/></svg>